<svg xmlns="http://www.w3.org/2000/svg" viewBox="0 0 32 32" role="img" aria-label="Convęnio">
  <rect width="32" height="32" rx="6" fill="#0d9488"/>
  <path
    fill="#ffffff"
    d="M22.5 10.2c-1.4-1.2-3.2-1.9-5.1-1.9-4.4 0-8 3.6-8 8s3.6 8 8 8c1.9 0 3.7-.7 5.1-1.9l-1.6-2.1c-.9.7-2 .1.1-2.1 1.1-1.1 1.1-2.9 0-4l1.6-2.1z"
  />
  <path
    fill="#ffffff"
    fill-opacity="0.85"
    d="M11.2 16c0-2.1 1.4-3.9 3.3-4.5l-.9-2.3C10.1 10.2 7.5 12.8 7.5 16s2.6 5.8 6.1 6.8l.9-2.3c-1.9-.6-3.3-2.4-3.3-4.5z"
  />
</svg>
